# xmcd
#
# Track frame offsets: 
#        150
#        17955
#        48240
#        75381
#        90018
#        126382
#        142770
#        171961
#        182723
#        202619
#
# Disc length: 2912 seconds
#
# Revision: 2
# Processed by: cddbd v1.5.1PL2 Copyright (c) Steve Scherf et al.
# Submitted via: ExactAudioCopy v0.95b3
#
DISCID=6f0b5e0a
DTITLE=Various Artist - The Bluegrass Tribute to Phish - Volumes 1+2 [CD2)
DYEAR=2003
DGENRE=Country
TTITLE0=Mike's Song
TTITLE1=First Tube
TTITLE2=You Enjoy Myself
TTITLE3=Julius
TTITLE4=Maze
TTITLE5=Farmhouse
TTITLE6=Weekapaug Groove
TTITLE7=All Things Reconsidered
TTITLE8=Down with Disease
TTITLE9=Waste
EXTD=
EXTT0=
EXTT1=
EXTT2=
EXTT3=
EXTT4=
EXTT5=
EXTT6=
EXTT7=
EXTT8=
EXTT9=
PLAYORDER=
